<svg width="25" height="24" viewBox="0 0 25 24" fill="none" xmlns="http://www.w3.org/2000/svg">
<path fill-rule="evenodd" clip-rule="evenodd" d="M7.5 2C6.17392 2 4.90215 2.52678 3.96447 3.46447C3.02678 4.40215 2.5 5.67392 2.5 7V17C2.5 18.3261 3.02678 19.5979 3.96447 20.5355C4.90215 21.4732 6.17392 22 7.5 22H17.5C18.8261 22 20.0979 21.4732 21.0355 20.5355C21.9732 19.5979 22.5 18.3261 22.5 17V7C22.5 5.67392 21.9732 4.40215 21.0355 3.46447C20.0979 2.52678 18.8261 2 17.5 2H7.5Z" fill="#FFB5B5"/>
<path d="M13.7334 11.9818L16.1356 9.86276C16.2675 9.74761 16.441 9.53795 16.3918 9.25195C16.3472 8.99218 16.1429 8.83901 15.9951 8.75464C15.8253 8.65186 15.6294 8.58604 15.4172 8.6025C15.2015 8.61924 15.018 8.71725 14.8702 8.8541L12.5669 10.898L10.3526 8.85612L10.3526 8.8561L10.3486 8.85245C10.2005 8.7196 10.02 8.62892 9.81172 8.61073C9.60722 8.59288 9.41384 8.64815 9.24102 8.7397L9.23223 8.74436L9.22369 8.74945C9.07588 8.83743 8.87369 8.99588 8.83413 9.2585C8.79214 9.53734 8.95742 9.74245 9.09002 9.85931L11.308 11.9101L8.85898 14.1382L8.85838 14.1387C8.72662 14.2591 8.56077 14.4702 8.60786 14.7518C8.65172 15.0142 8.85588 15.1695 9.00747 15.2556C9.17776 15.3556 9.37356 15.4167 9.58437 15.396C9.79676 15.3751 9.97691 15.2759 10.1226 15.1405L12.4885 12.9992L14.815 15.1462L14.815 15.1462L14.8165 15.1475C14.9666 15.2847 15.1515 15.3803 15.3669 15.3967C15.5756 15.4127 15.7704 15.3512 15.9419 15.253C16.0927 15.1724 16.3014 15.0203 16.3423 14.7526C16.3847 14.4744 16.2179 14.2659 16.0921 14.1482L16.0921 14.1482L16.0895 14.1458L13.7334 11.9818Z" fill="#1E1E1E" stroke="#1E1E1E" stroke-width="0.8"/>
</svg>
