<svg width="25" height="24" viewBox="0 0 25 24" fill="none" xmlns="http://www.w3.org/2000/svg">
<path fill-rule="evenodd" clip-rule="evenodd" d="M7.5 2C6.17392 2 4.90215 2.52678 3.96447 3.46447C3.02678 4.40215 2.5 5.67392 2.5 7V17C2.5 18.3261 3.02678 19.5979 3.96447 20.5355C4.90215 21.4732 6.17392 22 7.5 22H17.5C18.8261 22 20.0979 21.4732 21.0355 20.5355C21.9732 19.5979 22.5 18.3261 22.5 17V7C22.5 5.67392 21.9732 4.40215 21.0355 3.46447C20.0979 2.52678 18.8261 2 17.5 2H7.5Z" fill="#B5FFC0"/>
<path d="M16.4362 10.3526C16.3899 10.4755 16.3198 10.5881 16.23 10.684L12.479 14.684C12.3007 14.8738 12.0554 14.9866 11.7953 14.9984C11.5351 15.0101 11.2807 14.9199 11.086 14.747L8.83599 12.747C8.64786 12.5683 8.53656 12.3234 8.52561 12.0642C8.51466 11.8049 8.60492 11.5516 8.77731 11.3576C8.9497 11.1637 9.19074 11.0444 9.44949 11.0248C9.70824 11.0053 9.96445 11.0871 10.164 11.253L11.687 12.606L14.77 9.31601C14.8598 9.22015 14.9676 9.14291 15.0873 9.08872C15.207 9.03453 15.3362 9.00443 15.4675 9.00016C15.5988 8.99589 15.7296 9.01752 15.8526 9.06382C15.9755 9.11013 16.0881 9.18019 16.184 9.27001C16.2799 9.35984 16.3571 9.46766 16.4113 9.58734C16.4655 9.70701 16.4956 9.83618 16.4998 9.96749C16.5041 10.0988 16.4825 10.2296 16.4362 10.3526Z" fill="#1E1E1E"/>
</svg>
