<svg width="19" height="24" viewBox="0 0 19 24" fill="none" xmlns="http://www.w3.org/2000/svg">
<path d="M2.15467 23.997C1.54044 23.997 1.028 23.7917 0.617333 23.381C0.206666 22.9703 0.000888889 22.4579 0 21.8437V2.15034C0 1.53701 0.205777 1.02501 0.617333 0.614343C1.02889 0.203676 1.54133 -0.00210183 2.15467 -0.00299072H16.5133C17.1267 -0.00299072 17.6391 0.202787 18.0507 0.614343C18.4622 1.0259 18.6676 1.53834 18.6667 2.15168V21.8437C18.6667 22.457 18.4613 22.9695 18.0507 23.381C17.64 23.7926 17.1271 23.9979 16.512 23.997H2.15467ZM2.15467 22.6637H16.5133C16.7178 22.6637 16.9058 22.5783 17.0773 22.4077C17.2489 22.237 17.3342 22.0486 17.3333 21.8423V2.15168C17.3333 1.94634 17.248 1.7579 17.0773 1.58634C16.9067 1.41479 16.7182 1.32945 16.512 1.33034H14.6667V9.48501L12 7.89434L9.33333 9.48501V1.33034H2.15467C1.94933 1.33034 1.76089 1.41568 1.58933 1.58634C1.41778 1.75701 1.33244 1.94501 1.33333 2.15034V21.8437C1.33333 22.0481 1.41867 22.2361 1.58933 22.4077C1.76 22.5792 1.948 22.6646 2.15333 22.6637" fill="#E5E500"/>
</svg>
