<svg width="20" height="22" viewBox="0 0 20 22" fill="none" xmlns="http://www.w3.org/2000/svg">
<path d="M11.408 0.494997C11.0087 0.17461 10.512 0 10 0C9.48802 0 8.99135 0.17461 8.592 0.494997L0.842 6.712C0.579213 6.92283 0.367126 7.18998 0.221393 7.49373C0.0756593 7.79749 4.69258e-07 8.13009 0 8.467V19.747C0 20.3437 0.237053 20.916 0.65901 21.338C1.08097 21.7599 1.65326 21.997 2.25 21.997H4.75C5.34674 21.997 5.91903 21.7599 6.34099 21.338C6.76295 20.916 7 20.3437 7 19.747V14.247C7 13.557 7.56 12.997 8.25 12.997H11.75C12.44 12.997 13 13.557 13 14.247V19.747C13 20.3437 13.2371 20.916 13.659 21.338C14.081 21.7599 14.6533 21.997 15.25 21.997H17.75C18.3467 21.997 18.919 21.7599 19.341 21.338C19.7629 20.916 20 20.3437 20 19.747V8.467C20 8.13009 19.9243 7.79749 19.7786 7.49373C19.6329 7.18998 19.4208 6.92283 19.158 6.712L11.408 0.494997Z" fill="#04A9F5"/>
</svg>
