<svg width="24" height="20" viewBox="0 0 24 20" fill="none" xmlns="http://www.w3.org/2000/svg">
<path d="M16.2701 11.0859H21.8833C22.3122 11.0862 22.7234 11.2567 23.0265 11.5601C23.3297 11.8634 23.5 12.2748 23.5 12.7036L23.4999 12.705C23.4999 12.7094 23.4996 12.7174 23.4991 12.729C23.4981 12.7522 23.4959 12.7892 23.4912 12.8382C23.4819 12.9364 23.4627 13.0812 23.4237 13.257C23.3453 13.6098 23.1887 14.0781 22.878 14.5441C22.2762 15.4468 21.0306 16.4392 18.3526 16.4392C17.4612 16.4392 16.7311 16.3288 16.1327 16.1512C16.4328 15.4581 16.6286 14.7227 16.7107 13.9692M16.2701 11.0859L16.7107 13.9696C16.7107 13.9695 16.7107 13.9693 16.7107 13.9692M16.2701 11.0859C16.5691 11.6783 16.7377 12.3478 16.7377 13.0566V13.5592V13.5718L16.7375 13.5718C16.7341 13.7046 16.7252 13.8372 16.7107 13.9692M16.2701 11.0859L16.7107 13.9692M14.3244 13.409L14.3243 13.4152C14.3241 13.4222 14.3238 13.4343 14.3231 13.4511C14.3216 13.4848 14.3185 13.5371 14.3121 13.6056C14.2993 13.7426 14.2731 13.9428 14.2201 14.1851C14.1138 14.671 13.9016 15.3163 13.4799 15.9589C12.6559 17.2144 10.9693 18.557 7.4122 18.557C3.85515 18.557 2.16848 17.2144 1.34455 15.9589C0.922798 15.3163 0.710562 14.671 0.604266 14.1851C0.551268 13.9428 0.52514 13.7426 0.512294 13.6056C0.50588 13.5371 0.502803 13.4848 0.501332 13.4511C0.500597 13.4343 0.500263 13.4222 0.500114 13.4152L0.500001 13.4084L0.5 13.4084C0.500318 12.7925 0.7451 12.202 1.18059 11.7665C1.61637 11.3307 2.20741 11.0859 2.8237 11.0859H12.0007C12.617 11.0859 13.208 11.3307 13.6438 11.7665C14.0796 12.2022 14.3244 12.7933 14.3244 13.4096H14.8244C14.3244 13.4096 14.3244 13.4093 14.3244 13.409ZM14.3244 13.409L14.3244 13.4084L14.3244 13.408L14.3244 13.4085L14.3244 13.409ZM10.3032 7.47652C9.53647 8.24327 8.49654 8.67402 7.4122 8.67402C6.32786 8.67402 5.28793 8.24327 4.52119 7.47652C3.75445 6.70978 3.3237 5.66985 3.3237 4.58551C3.3237 3.50118 3.75445 2.46125 4.52119 1.6945C5.28793 0.927761 6.32786 0.497009 7.4122 0.497009C8.49654 0.497009 9.53647 0.927761 10.3032 1.6945C11.07 2.46125 11.5007 3.50118 11.5007 4.58551C11.5007 5.66985 11.07 6.70978 10.3032 7.47652ZM21.3836 5.6444C21.3836 6.44791 21.0644 7.2185 20.4963 7.78666C19.9281 8.35483 19.1575 8.67402 18.354 8.67402C17.5505 8.67402 16.7799 8.35483 16.2118 7.78666C15.6436 7.2185 15.3244 6.44791 15.3244 5.6444C15.3244 4.8409 15.6436 4.0703 16.2118 3.50214C16.7799 2.93397 17.5505 2.61478 18.354 2.61478C19.1575 2.61478 19.9281 2.93397 20.4963 3.50214C21.0644 4.0703 21.3836 4.8409 21.3836 5.6444Z" stroke="#FE594A"/>
</svg>
