<svg width="80" height="81" viewBox="0 0 80 81" fill="none" xmlns="http://www.w3.org/2000/svg">
<path d="M4 0.5C1.79086 0.5 0 2.29086 0 4.5V76.5C0 78.7091 1.79086 80.5 4 80.5H76C78.2091 80.5 80 78.7091 80 76.5V38.4428C80 34.8792 75.6914 33.0945 73.1716 35.6144L68.0466 40.7394C67.2964 41.4895 66.875 42.5069 66.875 43.5678V63.375C66.875 65.5841 65.0841 67.375 62.875 67.375H17.125C14.9159 67.375 13.125 65.5841 13.125 63.375V17.625C13.125 15.4159 14.9159 13.625 17.125 13.625H36.9322C37.9931 13.625 39.0105 13.2036 39.7606 12.4534L44.8856 7.32842C47.4055 4.80857 45.6208 0.5 42.0572 0.5H4ZM68.6671 1.51069C68.6672 1.51071 68.6672 1.51076 68.6671 1.51079L42.5503 27.6319C40.9882 29.1942 38.4554 29.1943 36.8932 27.6321L32.2091 22.9479C30.6467 21.3856 28.1136 21.3859 26.5516 22.9486L21.602 27.9005C20.0404 29.4628 20.0408 31.9952 21.603 33.557L36.893 48.8435C38.4551 50.4053 40.9875 50.4052 42.5495 48.8432L50.3269 41.0659L77.9997 13.3886C78.7025 12.6857 78.7025 11.5461 77.9996 10.8433L68.6671 1.51079C68.667 1.51074 68.6671 1.51066 68.6671 1.51069V1.51069Z" fill="white" fill-opacity="0.25"/>
</svg>
