<svg width="76" height="81" viewBox="0 0 76 81" fill="none" xmlns="http://www.w3.org/2000/svg">
<path d="M7.6 76.6905C5.51 76.6905 3.72147 75.9451 2.2344 74.4543C0.747333 72.9635 0.00253333 71.1692 0 69.0714V15.7381C0 13.6429 0.7448 11.8498 2.2344 10.359C3.724 8.86825 5.51253 8.12159 7.6 8.11905H11.4V0.5H19V8.11905H49.4V0.5H57V8.11905H60.8C62.89 8.11905 64.6798 8.86571 66.1694 10.359C67.659 11.8524 68.4025 13.6454 68.4 15.7381V33.5476C68.4 34.627 68.0352 35.5324 67.3056 36.2638C66.576 36.9952 65.6741 37.3597 64.6 37.3571C63.5258 37.3546 62.624 36.9889 61.8944 36.26C61.1648 35.5311 60.8 34.627 60.8 33.5476V30.9762H7.6V69.0714H29.64C30.7167 69.0714 31.6198 69.4371 32.3494 70.1686C33.079 70.9 33.4425 71.8041 33.44 72.8809C33.4375 73.9578 33.0727 74.8632 32.3456 75.5971C31.6185 76.3311 30.7167 76.6956 29.64 76.6905H7.6ZM57 80.5C51.7433 80.5 47.2631 78.6422 43.5594 74.9267C39.8557 71.2111 38.0025 66.7197 38 61.4524C37.9975 56.1851 39.8506 51.6936 43.5594 47.9781C47.2682 44.2625 51.7484 42.4048 57 42.4048C62.2516 42.4048 66.733 44.2625 70.4444 47.9781C74.1557 51.6936 76.0076 56.1851 76 61.4524C75.9924 66.7197 74.1392 71.2124 70.4406 74.9305C66.7419 78.6486 62.2617 80.5051 57 80.5ZM63.365 70.5L66.025 67.8333L58.9 60.6905V50.0238H55.1V62.2143L63.365 70.5Z" fill="white" fill-opacity="0.25"/>
</svg>
