<svg width="90" height="91" viewBox="0 0 90 91" fill="none" xmlns="http://www.w3.org/2000/svg">
<path d="M71.25 71.75H18.75V30.5H71.25M71.25 11.75H67.5V4.25H60V11.75H30V4.25H22.5V11.75H18.75C16.7609 11.75 14.8532 12.5402 13.4467 13.9467C12.0402 15.3532 11.25 17.2609 11.25 19.25V71.75C11.25 73.7391 12.0402 75.6468 13.4467 77.0533C14.8532 78.4598 16.7609 79.25 18.75 79.25H71.25C73.2391 79.25 75.1468 78.4598 76.5533 77.0533C77.9598 75.6468 78.75 73.7391 78.75 71.75V19.25C78.75 17.2609 77.9598 15.3532 76.5533 13.9467C75.1468 12.5402 73.2391 11.75 71.25 11.75ZM61.9875 41.975L58.0125 38L39.7125 56.3L31.7625 48.35L27.7875 52.325L39.7125 64.25L61.9875 41.975Z" fill="white" fill-opacity="0.25"/>
</svg>
